<?xml version="1.0" encoding="utf-8"?>
<!-- Generator: Adobe Illustrator 25.0.0, SVG Export Plug-In . SVG Version: 6.00 Build 0)  -->
<svg version="1.1" id="Layer_1" xmlns="http://www.w3.org/2000/svg" xmlns:xlink="http://www.w3.org/1999/xlink" x="0px" y="0px"
	 viewBox="0 0 24 24" style="enable-background:new 0 0 24 24;" xml:space="preserve">
<style type="text/css">
	.st0{fill:#FFFFFF;fill-opacity:0;}
	.st1{fill:#FFFFFF;}
</style>
<g>
	<g>
		<rect class="st0" width="24" height="24"/>
		<path class="st1" d="M9,3H5C3.9,3,3,3.9,3,5v4c0,1.1,0.9,2,2,2h4c1.1,0,2-0.9,2-2V5C11,3.9,10.1,3,9,3z"/>
		<path class="st1" d="M19,3h-4c-1.1,0-2,0.9-2,2v4c0,1.1,0.9,2,2,2h4c1.1,0,2-0.9,2-2V5C21,3.9,20.1,3,19,3z"/>
		<path class="st1" d="M9,13H5c-1.1,0-2,0.9-2,2v4c0,1.1,0.9,2,2,2h4c1.1,0,2-0.9,2-2v-4C11,13.9,10.1,13,9,13z"/>
		<path class="st1" d="M19,13h-4c-1.1,0-2,0.9-2,2v4c0,1.1,0.9,2,2,2h4c1.1,0,2-0.9,2-2v-4C21,13.9,20.1,13,19,13z"/>
	</g>
</g>
</svg>
