<?xml version="1.0" encoding="UTF-8"?>
<!DOCTYPE svg PUBLIC "-//W3C//DTD SVG 1.1//EN" "http://www.w3.org/Graphics/SVG/1.1/DTD/svg11.dtd">
<!-- Creator: IDNEXUS NETWORK (IDNEXUS.NET / NEXUS.CO.ID) -->
<svg xmlns="http://www.w3.org/2000/svg" xml:space="preserve" width="299px" height="76px" version="1.1" style="shape-rendering:geometricPrecision; text-rendering:geometricPrecision; image-rendering:optimizeQuality; fill-rule:evenodd; clip-rule:evenodd"
viewBox="0 0 298.59 75.89"
 xmlns:xlink="http://www.w3.org/1999/xlink"
 xmlns:xodm="../../index.html">
 <defs>
  <style type="text/css">
   <![CDATA[
    .fil0 {fill:#FEFEFE}
   ]]>
  </style>
 </defs>
 <g id="Layer_x0020_1">
  <metadata id="idnx"/>
  <g id="_1711417931056">
   <polygon class="fil0" points="173.96,43.53 173.96,20.14 180.16,20.14 180.16,55.15 174.25,55.15 159.15,31.82 159.15,55.15 152.86,55.15 152.86,20.14 158.66,20.14 "/>
   <path class="fil0" d="M179.33 20.14c0.11,1.02 0.16,2.07 0.16,3.12 0,6.47 -2.05,12.45 -5.53,17.35l0 -20.47 5.37 0zm-6.39 21.83c-0.64,0.79 -1.31,1.55 -2.02,2.27 -2.12,-2.16 -4.57,-4 -7.26,-5.44l-4.51 -6.98 0 5.01c-2.01,-0.68 -4.12,-1.15 -6.29,-1.39l0 -15.3 5.8 0 14.28 21.83z"/>
   <path class="fil0" d="M4.2 66.64c4.14,5.49 10.5,8.88 17.37,9.25l-0.82 -11.01c-16.42,-4.75 -7.52,-29.19 -5.38,-41.88l27.48 22.67 0.26 -12.25 -25.9 -21.35 -10.89 -1.84c-2.58,15.27 -11.51,43.98 -2.12,56.41z"/>
   <path class="fil0" d="M40.81 21.75l4.11 -11.54 29.68 -10.21c-3.95,20.22 -5.01,62.24 -27.26,67.43 -8.96,2.09 -18.3,-1.26 -23.89,-8.57 1.82,-3.92 3.39,-7.3 4.72,-10.14 2.36,5.37 7.87,8.66 13.72,8.21 15.49,-1.21 15.97,-29 18.5,-41.88l-19.58 6.7z"/>
   <path class="fil0" d="M72.42 0.75c-6.07,2.49 -10.6,7.8 -12.03,14.3l-19.58 6.7 4.11 -11.54 27.5 -9.46z"/>
   <polygon class="fil0" points="44.92,10.21 60.39,15.05 40.81,21.75 "/>
   <path class="fil0" d="M53.54 47.31l0 0 0.01 -0.02c0.05,-0.1 0.09,-0.2 0.14,-0.31 2.45,-5.28 8.24,-8.19 13.97,-6.98 -3.56,13.4 -9.37,24.88 -20.32,27.43 -8.96,2.09 -18.3,-1.26 -23.89,-8.57 1.82,-3.92 3.39,-7.3 4.72,-10.14 2.36,5.37 7.86,8.66 13.72,8.21 5.54,-0.43 9.17,-4.27 11.65,-9.62z"/>
   <path class="fil0" d="M12.02 56.4l0 0 -0.01 -0.04c-0.07,-0.22 -0.13,-0.44 -0.2,-0.67 -1.61,-4.9 -6.65,-7.9 -11.79,-6.89 -0.16,7.1 0.88,13.48 4.18,17.84 4.14,5.49 10.5,8.88 17.37,9.25l-0.82 -11.01c-4.82,-1.39 -7.46,-4.48 -8.73,-8.48z"/>
   <path class="fil0" d="M15.37 23c-0.28,-7.31 -2.95,-11.5 -8,-12.59l9.84 1.66 25.9 21.35 -0.26 12.25 -27.48 -22.67z"/>
   <polygon class="fil0" points="42.85,45.67 32.5,24.67 43.11,33.42 "/>
   <path class="fil0" d="M116.72 55.15l0 -35.01 10.94 0c3.28,0 6.52,0.63 9.4,2.25 2.64,1.49 4.71,3.56 6.12,6.24 1.46,2.79 2.06,5.85 2.06,8.98 0,4.79 -1.24,9.36 -4.69,12.83 -3.46,3.48 -8.08,4.71 -12.89,4.71l-10.94 0zm6.3 -5.88l4.62 0c3.08,0 6.01,-0.77 8.21,-3.03 2.25,-2.33 2.95,-5.48 2.95,-8.63 0,-3.15 -0.74,-6.19 -2.96,-8.51 -2.19,-2.29 -5.1,-3.08 -8.2,-3.08l-4.62 0 0 23.25z"/>
   <path class="fil0" d="M194.17 44.38c0.24,1.38 0.8,2.64 1.85,3.67 1.37,1.35 3.13,1.82 5.01,1.82 1.39,0 2.7,-0.3 3.91,-0.98 1.07,-0.6 1.85,-1.43 2.3,-2.57l0.31 -0.81 6.35 0 -0.48 1.63c-0.77,2.6 -2.3,4.69 -4.52,6.25 -2.35,1.66 -5.05,2.36 -7.9,2.36 -2.5,0 -4.9,-0.55 -7.05,-1.83 -2.05,-1.23 -3.63,-2.92 -4.73,-5.04 -1.13,-2.2 -1.61,-4.59 -1.61,-7.05 0,-1.95 0.3,-3.87 1.01,-5.68 0.64,-1.65 1.55,-3.17 2.79,-4.44 1.2,-1.22 2.6,-2.16 4.18,-2.82 1.63,-0.68 3.35,-1 5.12,-1 2.45,0 4.82,0.53 6.92,1.82 1.98,1.21 3.51,2.86 4.53,4.95 1.05,2.13 1.5,4.45 1.5,6.83l0 2.89 -19.49 0zm0.19 -5.78l12.74 0c-0.26,-1.22 -0.82,-2.33 -1.8,-3.21 -1.29,-1.15 -2.82,-1.63 -4.54,-1.63 -1.73,0 -3.22,0.56 -4.51,1.72 -0.97,0.88 -1.58,1.93 -1.89,3.12z"/>
   <path class="fil0" d="M290.51 44.73c-0.89,-0.28 -1.79,-0.51 -2.71,-0.69 -1.02,-0.2 -2.04,-0.43 -3.05,-0.69 -1.05,-0.27 -2.06,-0.63 -3.03,-1.12 -1.09,-0.55 -1.95,-1.38 -2.59,-2.42 -0.71,-1.18 -0.98,-2.54 -0.98,-3.91 0,-2.43 1.01,-4.44 2.95,-5.9 2.04,-1.55 4.5,-2.11 7.03,-2.11 2.43,0 4.69,0.64 6.62,2.15 1.91,1.51 2.94,3.54 3.14,5.97l0.12 1.37 -5.96 0 -0.15 -1.08c-0.12,-0.8 -0.46,-1.44 -1.1,-1.93 -0.81,-0.6 -1.95,-0.75 -2.92,-0.75 -0.98,0 -2.06,0.16 -2.88,0.74 -0.54,0.4 -0.83,0.87 -0.83,1.55 0,0.37 0.07,0.71 0.32,1 0.28,0.32 0.66,0.5 1.06,0.61 0.35,0.1 0.7,0.2 1.05,0.29 1.3,0.35 2.61,0.71 3.92,1.06 1.44,0.39 4.09,1.09 5.32,1.94 0.9,0.62 1.56,1.48 2.02,2.47 0.54,1.13 0.73,2.37 0.73,3.62 0,2.61 -0.99,4.82 -3.01,6.48 -2.14,1.75 -4.82,2.37 -7.54,2.37 -2.68,0 -5.34,-0.6 -7.41,-2.38 -1.94,-1.66 -2.94,-3.85 -3.17,-6.38l-0.12 -1.38 5.96 0 0.16 1.07c0.15,0.99 0.52,1.86 1.34,2.46 0.95,0.7 2.27,0.87 3.42,0.87 1.12,0 2.45,-0.17 3.36,-0.88 0.69,-0.54 1,-1.19 1,-2.06 0,-0.52 -0.11,-0.99 -0.46,-1.38 -0.43,-0.47 -1.01,-0.76 -1.61,-0.96z"/>
   <path class="fil0" d="M264.02 53.6c-0.34,0.28 -0.72,0.54 -1.11,0.78 -1.6,0.98 -3.42,1.37 -5.28,1.37 -2.92,0 -5.52,-0.94 -7.49,-3.13 -1.95,-2.16 -2.77,-4.81 -2.77,-7.69l0 -16.44 6.2 0 0 16.31c0,1.41 0.39,2.68 1.42,3.68 0.98,0.95 2.15,1.39 3.52,1.39 1.54,0 2.84,-0.49 3.93,-1.59 1.11,-1.12 1.58,-2.48 1.58,-4.05l0 -15.74 6.2 0 0 26.66 -6.2 0 0 -1.55z"/>
   <path class="fil0" d="M225.35 41.31l-8.95 -12.82 7.41 0 19.16 26.66 -7.41 0 -6.27 -9.12 -6.16 9.12 -7.38 0 9.6 -13.84zm7.68 -10.04l1.86 -2.78 7.42 0 -5.52 8.01 -3.76 -5.23z"/>
   <polygon class="fil0" points="100.45,55.15 100.45,20.14 106.75,20.14 106.75,55.15 "/>
   <path class="fil0" d="M209.33 53.07c-8.99,-0.93 -16.8,-5.84 -21.64,-12.94 0.13,-1.36 0.43,-2.7 0.93,-3.98 0.64,-1.65 1.55,-3.17 2.8,-4.44 1.19,-1.22 2.59,-2.16 4.17,-2.82 1.63,-0.68 3.35,-1 5.12,-1 2.45,0 4.82,0.53 6.92,1.82 1.98,1.21 3.51,2.86 4.53,4.95 1.05,2.13 1.5,4.45 1.5,6.83l0 2.89 -19.49 0c0.24,1.38 0.8,2.64 1.85,3.67 1.37,1.35 3.13,1.82 5.01,1.82 1.39,0 2.7,-0.3 3.91,-0.98 1.07,-0.6 1.85,-1.43 2.3,-2.57l0.31 -0.81 6.35 0 -0.48 1.63c-0.72,2.43 -2.1,4.41 -4.09,5.93zm-14.97 -14.47l12.74 0c-0.26,-1.22 -0.82,-2.33 -1.8,-3.21 -1.29,-1.15 -2.82,-1.63 -4.54,-1.63 -1.73,0 -3.22,0.56 -4.51,1.72 -0.97,0.88 -1.58,1.93 -1.89,3.12z"/>
   <path class="fil0" d="M189.94 45.46l0.16 -0.19c-0.06,0.07 -0.11,0.13 -0.16,0.19z"/>
   <path class="fil0" d="M189.5 45.97c0.06,-0.08 0.13,-0.16 0.2,-0.23 -0.07,0.07 -0.14,0.15 -0.2,0.23z"/>
   <path class="fil0" d="M188.5 47.22c0.32,-0.42 0.65,-0.84 1,-1.25 -0.35,0.41 -0.68,0.83 -1,1.25 -0.62,-1.72 -0.89,-3.54 -0.89,-5.39 0,-0.57 0.02,-1.14 0.08,-1.7 1,1.47 2.13,2.85 3.37,4.11 4.76,4.85 11.14,8.09 18.27,8.84 -0.14,0.1 -0.28,0.21 -0.43,0.31 -2.35,1.66 -5.05,2.36 -7.9,2.36 -2.5,0 -4.9,-0.55 -7.05,-1.84 -2.05,-1.22 -3.63,-2.91 -4.73,-5.03 -0.28,-0.54 -0.51,-1.1 -0.72,-1.66z"/>
   <path class="fil0" d="M177.75 55.15c-1.47,-4.13 -3.82,-7.84 -6.83,-10.91 0.71,-0.72 1.38,-1.48 2.02,-2.27l1.02 1.56 0 -2.92c1.05,-1.48 1.97,-3.06 2.75,-4.71l0 0c1.78,-3.84 2.78,-8.13 2.78,-12.64 0,-1.05 -0.05,-2.1 -0.16,-3.12l0.83 0 0 15.24 0 0 0 19.77 -2.41 0z"/>
   <path class="fil0" d="M298.08 49.93c-0.03,0.07 -0.05,0.13 -0.07,0.19 0.02,-0.06 0.04,-0.12 0.07,-0.19zm-0.16 0.39c-0.49,1.16 -1.27,2.18 -2.34,3.06 -2.14,1.75 -4.82,2.37 -7.54,2.37 -2.68,0 -5.34,-0.6 -7.41,-2.38 -1.42,-1.21 -2.33,-2.71 -2.81,-4.41 2.96,2.51 6.79,4.02 10.97,4.02 3.36,0 6.5,-0.98 9.13,-2.66z"/>
   <path class="fil0" d="M241.36 52.9c-3.39,-0.51 -6.59,-1.59 -9.5,-3.14l-2.57 -3.73 -1.01 1.5c-1.63,-1.18 -3.13,-2.52 -4.48,-3.99l1.55 -2.23 -8.95 -12.82 7.41 0 17.55 24.41zm6.01 -19.09c2.13,0.15 4.21,0.52 6.2,1.09l0 9.9c0,1.41 0.39,2.68 1.42,3.68 0.98,0.95 2.15,1.39 3.52,1.39 1.54,0 2.84,-0.49 3.93,-1.59 1.11,-1.13 1.58,-2.48 1.58,-4.05l0 -4c2.37,1.85 4.46,4.04 6.2,6.5l0 8.42 -6.2 0 0 -1.55c-0.34,0.28 -0.72,0.54 -1.11,0.78 -1.6,0.98 -3.42,1.37 -5.28,1.37 -2.92,0 -5.52,-0.94 -7.49,-3.13 -1.95,-2.16 -2.77,-4.81 -2.77,-7.69l0 -11.12zm-14.34 -2.54l1.86 -2.78 7.42 0 -5.52 8.01 -3.76 -5.23z"/>
   <path class="fil0" d="M215.81 55.15l0.05 -0.16 9.49 -13.68 -1.55 2.23c1.35,1.47 2.85,2.81 4.48,3.99l1.01 -1.5 -6.16 9.12 -7.32 0zm25.55 -2.25l1.61 2.25 -7.41 0 -6.27 -9.12 2.57 3.73c2.91,1.55 6.11,2.63 9.5,3.14z"/>
   <path class="fil0" d="M145.15 35.57c-2.2,0.32 -4.33,0.88 -6.35,1.65 -0.06,-3.01 -0.83,-5.9 -2.96,-8.12 -2.19,-2.29 -5.1,-3.08 -8.2,-3.08l-4.62 0 0 9.39c-0.32,-0.04 -0.64,-0.06 -0.96,-0.08 -1.62,-3.7 -2.53,-7.78 -2.53,-12.07 0,-1.05 0.06,-2.1 0.17,-3.12l7.96 0c3.28,0 6.52,0.63 9.4,2.25 2.64,1.49 4.71,3.56 6.12,6.24 1.14,2.18 1.76,4.52 1.97,6.94zm-5.98 6.64c0.09,0.07 0.17,0.14 0.25,0.22 -0.08,-0.08 -0.16,-0.15 -0.25,-0.22zm2.7 2.56c0.05,0.05 0.09,0.1 0.14,0.15l-0.14 -0.15zm0.9 1c0.06,0.07 0.12,0.14 0.17,0.21 -0.05,-0.07 -0.11,-0.14 -0.17,-0.21z"/>
   <path class="fil0" d="M143.37 46.5c-1.47,-1.84 -3.15,-3.5 -5.01,-4.94 0.32,-1.27 0.44,-2.61 0.44,-3.95 0,-0.13 0,-0.26 0,-0.39 2.02,-0.77 4.15,-1.33 6.35,-1.65 0.06,0.67 0.09,1.36 0.09,2.04 0,3.14 -0.54,6.19 -1.87,8.89zm9.49 -11.06c2.17,0.24 4.28,0.71 6.29,1.39l0 18.32 -6.29 0 0 -19.71zm10.8 3.35c6.51,3.5 11.58,9.32 14.09,16.36l-3.5 0 -10.59 -16.36z"/>
   <path class="fil0" d="M119.77 20.14c-0.11,1.03 -0.17,2.08 -0.17,3.14 0,4.33 0.93,8.45 2.6,12.17 -0.72,-0.05 -1.43,-0.08 -2.16,-0.08 -1.12,0 -2.23,0.06 -3.32,0.18l0 -15.41 3.05 0z"/>
   <path class="fil0" d="M106.75 38.32c-2.28,1.12 -4.39,2.52 -6.3,4.15l0 -22.33 6.3 0 0 18.18z"/>
   <path class="fil0" d="M100.45 42.47c1.91,-1.64 4.02,-3.04 6.3,-4.16l0 16.84 -6.3 0 0 -12.68zm19.51 -7.22c1.03,0 2.05,0.05 3.06,0.15l0 13.87 4.62 0c3.08,0 6.01,-0.77 8.21,-3.03 1.3,-1.34 2.08,-2.95 2.51,-4.68 1.86,1.44 3.54,3.1 5.01,4.94 -0.7,1.42 -1.63,2.74 -2.82,3.94 -3.46,3.48 -8.08,4.71 -12.89,4.71l-10.94 0 0 -19.72c1.07,-0.12 2.15,-0.18 3.24,-0.18z"/>
   <path class="fil0" d="M247.37 33.81l0 -5.32 6.2 0 0 6.41c-1.99,-0.57 -4.07,-0.94 -6.2,-1.09zm16.65 6.42l0 -11.74 6.2 0 0 18.24c-1.74,-2.46 -3.83,-4.65 -6.2,-6.5z"/>
   <path class="fil0" d="M297.92 50.32c-2.63,1.68 -5.77,2.66 -9.13,2.66 -4.18,0 -8.01,-1.51 -10.97,-4.02 -0.18,-0.63 -0.3,-1.29 -0.36,-1.97l-0.12 -1.38 5.96 0 0.16 1.07c0.15,0.99 0.52,1.86 1.34,2.46 0.95,0.7 2.27,0.87 3.42,0.87 1.12,0 2.45,-0.17 3.36,-0.88 0.69,-0.54 1,-1.19 1,-2.06 0,-0.52 -0.11,-0.99 -0.46,-1.38 -0.43,-0.47 -1.01,-0.76 -1.61,-0.96 -0.89,-0.28 -1.79,-0.51 -2.71,-0.69 -1.02,-0.2 -2.04,-0.43 -3.05,-0.69 -1.05,-0.27 -2.06,-0.63 -3.03,-1.12 -1.09,-0.55 -1.95,-1.38 -2.59,-2.42 -0.71,-1.18 -0.98,-2.54 -0.98,-3.91 0,-2.43 1.01,-4.44 2.95,-5.9 2.04,-1.55 4.5,-2.11 7.03,-2.11 2.43,0 4.69,0.64 6.62,2.15 1.91,1.51 2.94,3.54 3.14,5.97l0.12 1.37 -5.96 0 -0.15 -1.08c-0.12,-0.8 -0.46,-1.44 -1.1,-1.93 -0.81,-0.6 -1.95,-0.75 -2.92,-0.75 -0.98,0 -2.06,0.16 -2.88,0.74 -0.54,0.4 -0.83,0.87 -0.83,1.55 0,0.37 0.07,0.71 0.32,0.99 0.28,0.33 0.66,0.51 1.06,0.62 0.35,0.1 0.7,0.2 1.05,0.29 1.3,0.35 2.61,0.71 3.92,1.06 1.44,0.39 4.09,1.09 5.32,1.94 0.9,0.62 1.56,1.48 2.02,2.47 0.54,1.13 0.73,2.37 0.73,3.62 0,1.23 -0.22,2.38 -0.67,3.42z"/>
  </g>
 </g>
</svg>
