<?xml version="1.0" encoding="utf-8"?>
<!-- Generator: Adobe Illustrator 25.0.0, SVG Export Plug-In . SVG Version: 6.00 Build 0)  -->
<svg version="1.1" id="Layer_1" xmlns:xodm="../../index.html"
	 xmlns="http://www.w3.org/2000/svg" xmlns:xlink="http://www.w3.org/1999/xlink" x="0px" y="0px" viewBox="0 0 299 76"
	 style="enable-background:new 0 0 299 76;" xml:space="preserve">
<style type="text/css">
	.st0{display:none;}
	.st1{display:inline;}
	.st2{fill-rule:evenodd;clip-rule:evenodd;}
	.st3{fill:#FFFFFF;fill-opacity:0;}
	.st4{fill:#FFFFFF;}
	.st5{font-family:'MyriadPro-Semibold';}
	.st6{font-size:41.3186px;}
</style>
<g id="Layer_x0020_1" class="st0">
	<g id="_1711417931056" class="st1">
		<polygon class="st2" points="174.2,43.6 174.2,20.2 180.4,20.2 180.4,55.2 174.5,55.2 159.4,31.9 159.4,55.2 153.1,55.2 
			153.1,20.2 158.9,20.2 		"/>
		<path class="st2" d="M179.6,20.2c0.1,1,0.2,2.1,0.2,3.1c0,6.5-2.1,12.5-5.5,17.4V20.2C174.2,20.2,179.6,20.2,179.6,20.2z
			 M173.2,42c-0.6,0.8-1.3,1.6-2,2.3c-2.1-2.2-4.6-4-7.3-5.4l-4.5-7v5c-2-0.7-4.1-1.2-6.3-1.4V20.2h5.8L173.2,42L173.2,42z"/>
		<path class="st2" d="M4.2,66.7c4.1,5.5,10.5,8.9,17.4,9.3l-0.8-11C4.3,60.2,13.2,35.7,15.4,23l27.5,22.7l0.3-12.3L17.2,12.1
			L6.3,10.2C3.7,25.5-5.2,54.3,4.2,66.7z"/>
		<path class="st2" d="M40.9,21.8L45,10.2L74.7,0c-4,20.2-5,62.3-27.3,67.5c-9,2.1-18.3-1.3-23.9-8.6c1.8-3.9,3.4-7.3,4.7-10.2
			c2.4,5.4,7.9,8.7,13.7,8.2c15.5-1.2,16-29,18.5-41.9C60.5,15.1,40.9,21.8,40.9,21.8z"/>
		<path class="st2" d="M72.5,0.8c-6.1,2.5-10.6,7.8-12,14.3l-19.6,6.7L45,10.2L72.5,0.8z"/>
		<polygon class="st2" points="45,10.2 60.5,15.1 40.9,21.8 		"/>
		<path class="st2" d="M53.6,47.4L53.6,47.4L53.6,47.4c0.1-0.1,0.1-0.2,0.2-0.3c2.5-5.3,8.3-8.2,14-7C64.2,53.5,58.4,65,47.4,67.5
			c-9,2.1-18.3-1.3-23.9-8.6c1.8-3.9,3.4-7.3,4.7-10.2c2.4,5.4,7.9,8.7,13.7,8.2C47.5,56.6,51.1,52.7,53.6,47.4z"/>
		<path class="st2" d="M12,56.5L12,56.5L12,56.5c-0.1-0.3-0.1-0.5-0.2-0.7c-1.6-4.9-6.7-7.9-11.8-6.9C-0.1,56,0.9,62.4,4.2,66.7
			c4.1,5.5,10.5,8.9,17.4,9.3l-0.8-11C16,63.6,13.3,60.5,12,56.5z"/>
		<path class="st2" d="M15.4,23c-0.3-7.3-3-11.5-8-12.6l9.9,1.7l25.9,21.4l-0.3,12.3C42.9,45.7,15.4,23,15.4,23z"/>
		<polygon class="st2" points="42.9,45.7 32.5,24.7 43.2,33.5 		"/>
		<path class="st2" d="M116.9,55.2V20.2h11c3.3,0,6.5,0.6,9.4,2.3c2.6,1.5,4.7,3.6,6.1,6.2c1.5,2.8,2.1,5.9,2.1,9
			c0,4.8-1.2,9.4-4.7,12.8c-3.5,3.5-8.1,4.7-12.9,4.7H116.9L116.9,55.2z M123.2,49.3h4.6c3.1,0,6-0.8,8.2-3c2.3-2.3,3-5.5,3-8.6
			c0-3.2-0.7-6.2-3-8.5c-2.2-2.3-5.1-3.1-8.2-3.1h-4.6C123.2,26.1,123.2,49.3,123.2,49.3z"/>
		<path class="st2" d="M194.4,44.4c0.2,1.4,0.8,2.6,1.9,3.7c1.4,1.4,3.1,1.8,5,1.8c1.4,0,2.7-0.3,3.9-1c1.1-0.6,1.9-1.4,2.3-2.6
			l0.3-0.8h6.4l-0.5,1.6c-0.8,2.6-2.3,4.7-4.5,6.3c-2.4,1.7-5.1,2.4-7.9,2.4c-2.5,0-4.9-0.6-7.1-1.8c-2.1-1.2-3.6-2.9-4.7-5
			c-1.1-2.2-1.6-4.6-1.6-7.1c0-2,0.3-3.9,1-5.7c0.6-1.7,1.6-3.2,2.8-4.4c1.2-1.2,2.6-2.2,4.2-2.8c1.6-0.7,3.4-1,5.1-1
			c2.5,0,4.8,0.5,6.9,1.8c2,1.2,3.5,2.9,4.5,5c1.1,2.1,1.5,4.5,1.5,6.8v2.9L194.4,44.4L194.4,44.4z M194.6,38.7h12.8
			c-0.3-1.2-0.8-2.3-1.8-3.2c-1.3-1.2-2.8-1.6-4.5-1.6c-1.7,0-3.2,0.6-4.5,1.7C195.5,36.4,194.9,37.5,194.6,38.7L194.6,38.7z"/>
		<path class="st2" d="M290.9,44.8c-0.9-0.3-1.8-0.5-2.7-0.7c-1-0.2-2-0.4-3.1-0.7c-1.1-0.3-2.1-0.6-3-1.1c-1.1-0.6-2-1.4-2.6-2.4
			c-0.7-1.2-1-2.5-1-3.9c0-2.4,1-4.4,3-5.9c2-1.6,4.5-2.1,7-2.1c2.4,0,4.7,0.6,6.6,2.2c1.9,1.5,2.9,3.5,3.1,6l0.1,1.4h-6l-0.2-1.1
			c-0.1-0.8-0.5-1.4-1.1-1.9c-0.8-0.6-2-0.8-2.9-0.8c-1,0-2.1,0.2-2.9,0.7c-0.5,0.4-0.8,0.9-0.8,1.6c0,0.4,0.1,0.7,0.3,1
			c0.3,0.3,0.7,0.5,1.1,0.6c0.4,0.1,0.7,0.2,1.1,0.3c1.3,0.4,2.6,0.7,3.9,1.1c1.4,0.4,4.1,1.1,5.3,1.9c0.9,0.6,1.6,1.5,2,2.5
			c0.5,1.1,0.7,2.4,0.7,3.6c0,2.6-1,4.8-3,6.5c-2.1,1.8-4.8,2.4-7.6,2.4c-2.7,0-5.3-0.6-7.4-2.4c-1.9-1.7-2.9-3.9-3.2-6.4l-0.1-1.4
			h6l0.2,1.1c0.2,1,0.5,1.9,1.3,2.5c1,0.7,2.3,0.9,3.4,0.9c1.1,0,2.5-0.2,3.4-0.9c0.7-0.5,1-1.2,1-2.1c0-0.5-0.1-1-0.5-1.4
			C292.1,45.3,291.5,45,290.9,44.8L290.9,44.8z"/>
		<path class="st2" d="M264.4,53.7c-0.3,0.3-0.7,0.5-1.1,0.8c-1.6,1-3.4,1.4-5.3,1.4c-2.9,0-5.5-0.9-7.5-3.1c-2-2.2-2.8-4.8-2.8-7.7
			V28.5h6.2v16.3c0,1.4,0.4,2.7,1.4,3.7c1,1,2.2,1.4,3.5,1.4c1.5,0,2.8-0.5,3.9-1.6c1.1-1.1,1.6-2.5,1.6-4.1V28.5h6.2v26.7h-6.2
			L264.4,53.7L264.4,53.7z"/>
		<path class="st2" d="M225.7,41.4l-9-12.8h7.4l19.2,26.7h-7.4l-6.3-9.1l-6.2,9.1H216L225.7,41.4z M233.3,31.3l1.9-2.8h7.4l-5.5,8
			L233.3,31.3z"/>
		<polygon class="st2" points="100.6,55.2 100.6,20.2 106.9,20.2 106.9,55.2 		"/>
		<path class="st2" d="M209.6,53.1c-9-0.9-16.8-5.8-21.7-13c0.1-1.4,0.4-2.7,0.9-4c0.6-1.7,1.6-3.2,2.8-4.4c1.2-1.2,2.6-2.2,4.2-2.8
			c1.6-0.7,3.4-1,5.1-1c2.5,0,4.8,0.5,6.9,1.8c2,1.2,3.5,2.9,4.5,5c1.1,2.1,1.5,4.5,1.5,6.8v2.9h-19.5c0.2,1.4,0.8,2.6,1.9,3.7
			c1.4,1.4,3.1,1.8,5,1.8c1.4,0,2.7-0.3,3.9-1c1.1-0.6,1.9-1.4,2.3-2.6l0.3-0.8h6.4l-0.5,1.6C213,49.6,211.6,51.6,209.6,53.1z
			 M194.6,38.7h12.8c-0.3-1.2-0.8-2.3-1.8-3.2c-1.3-1.2-2.8-1.6-4.5-1.6c-1.7,0-3.2,0.6-4.5,1.7C195.5,36.4,194.9,37.5,194.6,38.7
			L194.6,38.7z"/>
		<path class="st2" d="M190.2,45.5l0.2-0.2C190.3,45.4,190.3,45.5,190.2,45.5z"/>
		<path class="st2" d="M189.8,46c0.1-0.1,0.1-0.2,0.2-0.2C189.9,45.9,189.8,46,189.8,46z"/>
		<path class="st2" d="M188.8,47.3c0.3-0.4,0.7-0.8,1-1.3C189.4,46.4,189.1,46.9,188.8,47.3c-0.6-1.7-0.9-3.5-0.9-5.4
			c0-0.6,0-1.1,0.1-1.7c1,1.5,2.1,2.9,3.4,4.1c4.8,4.9,11.2,8.1,18.3,8.9c-0.1,0.1-0.3,0.2-0.4,0.3c-2.4,1.7-5.1,2.4-7.9,2.4
			c-2.5,0-4.9-0.6-7.1-1.8c-2.1-1.2-3.6-2.9-4.7-5C189.2,48.4,189,47.8,188.8,47.3L188.8,47.3z"/>
		<path class="st2" d="M178,55.2c-1.5-4.1-3.8-7.9-6.8-10.9c0.7-0.7,1.4-1.5,2-2.3l1,1.6v-2.9c1.1-1.5,2-3.1,2.8-4.7l0,0
			c1.8-3.8,2.8-8.1,2.8-12.7c0-1.1-0.1-2.1-0.2-3.1h0.8v15.3l0,0v19.8C180.4,55.2,178,55.2,178,55.2z"/>
		<path class="st2" d="M298.5,50c0,0.1-0.1,0.1-0.1,0.2C298.4,50.1,298.5,50.1,298.5,50z M298.3,50.4c-0.5,1.2-1.3,2.2-2.3,3.1
			c-2.1,1.8-4.8,2.4-7.6,2.4c-2.7,0-5.3-0.6-7.4-2.4c-1.4-1.2-2.3-2.7-2.8-4.4c3,2.5,6.8,4,11,4C292.6,53.1,295.7,52.1,298.3,50.4z"
			/>
		<path class="st2" d="M241.7,53c-3.4-0.5-6.6-1.6-9.5-3.1l-2.6-3.7l-1,1.5c-1.6-1.2-3.1-2.5-4.5-4l1.6-2.2l-9-12.8h7.4L241.7,53
			L241.7,53z M247.7,33.9c2.1,0.2,4.2,0.5,6.2,1.1v9.9c0,1.4,0.4,2.7,1.4,3.7c1,1,2.2,1.4,3.5,1.4c1.5,0,2.8-0.5,3.9-1.6
			c1.1-1.1,1.6-2.5,1.6-4.1v-4c2.4,1.9,4.5,4,6.2,6.5v8.4h-6.2v-1.6c-0.3,0.3-0.7,0.5-1.1,0.8c-1.6,1-3.4,1.4-5.3,1.4
			c-2.9,0-5.5-0.9-7.5-3.1c-2-2.2-2.8-4.8-2.8-7.7L247.7,33.9L247.7,33.9z M233.3,31.3l1.9-2.8h7.4l-5.5,8L233.3,31.3z"/>
		<path class="st2" d="M216.1,55.2l0.1-0.2l9.5-13.7l-1.6,2.2c1.4,1.5,2.9,2.8,4.5,4l1-1.5l-6.2,9.1H216.1L216.1,55.2z M241.7,53
			l1.6,2.3h-7.4l-6.3-9.1l2.6,3.7C235.1,51.4,238.3,52.5,241.7,53z"/>
		<path class="st2" d="M145.3,35.6c-2.2,0.3-4.3,0.9-6.4,1.7c-0.1-3-0.8-5.9-3-8.1c-2.2-2.3-5.1-3.1-8.2-3.1h-4.6v9.4
			c-0.3,0-0.6-0.1-1-0.1c-1.6-3.7-2.5-7.8-2.5-12.1c0-1.1,0.1-2.1,0.2-3.1h8c3.3,0,6.5,0.6,9.4,2.3c2.6,1.5,4.7,3.6,6.1,6.2
			C144.5,30.9,145.1,33.2,145.3,35.6L145.3,35.6z M139.4,42.3c0.1,0.1,0.2,0.1,0.3,0.2C139.5,42.4,139.5,42.3,139.4,42.3z
			 M142.1,44.8c0.1,0.1,0.1,0.1,0.1,0.2L142.1,44.8z M143,45.8c0.1,0.1,0.1,0.1,0.2,0.2C143.1,46,143,45.9,143,45.8z"/>
		<path class="st2" d="M143.6,46.6c-1.5-1.8-3.2-3.5-5-4.9c0.3-1.3,0.4-2.6,0.4-4c0-0.1,0-0.3,0-0.4c2-0.8,4.2-1.3,6.4-1.7
			c0.1,0.7,0.1,1.4,0.1,2C145.4,40.8,144.9,43.9,143.6,46.6L143.6,46.6z M153.1,35.5c2.2,0.2,4.3,0.7,6.3,1.4v18.3h-6.3V35.5z
			 M163.9,38.8c6.5,3.5,11.6,9.3,14.1,16.4h-3.5L163.9,38.8z"/>
		<path class="st2" d="M119.9,20.2c-0.1,1-0.2,2.1-0.2,3.1c0,4.3,0.9,8.5,2.6,12.2c-0.7-0.1-1.4-0.1-2.2-0.1c-1.1,0-2.2,0.1-3.3,0.2
			V20.2C116.9,20.2,119.9,20.2,119.9,20.2z"/>
		<path class="st2" d="M106.9,38.4c-2.3,1.1-4.4,2.5-6.3,4.2V20.2h6.3V38.4z"/>
		<path class="st2" d="M100.6,42.5c1.9-1.6,4-3,6.3-4.2v16.9h-6.3V42.5z M120.1,35.3c1,0,2.1,0.1,3.1,0.2v13.9h4.6
			c3.1,0,6-0.8,8.2-3c1.3-1.3,2.1-3,2.5-4.7c1.9,1.4,3.5,3.1,5,4.9c-0.7,1.4-1.6,2.7-2.8,3.9c-3.5,3.5-8.1,4.7-12.9,4.7h-11V35.5
			C118,35.4,119,35.3,120.1,35.3L120.1,35.3z"/>
		<path class="st2" d="M247.7,33.9v-5.3h6.2V35C251.9,34.4,249.8,34,247.7,33.9z M264.4,40.3V28.5h6.2v18.3
			C268.8,44.3,266.8,42.1,264.4,40.3z"/>
		<path class="st2" d="M298.3,50.4c-2.6,1.7-5.8,2.7-9.1,2.7c-4.2,0-8-1.5-11-4c-0.2-0.6-0.3-1.3-0.4-2l-0.1-1.4h6l0.2,1.1
			c0.2,1,0.5,1.9,1.3,2.5c1,0.7,2.3,0.9,3.4,0.9c1.1,0,2.5-0.2,3.4-0.9c0.7-0.5,1-1.2,1-2.1c0-0.5-0.1-1-0.5-1.4
			c-0.4-0.5-1-0.8-1.6-1c-0.9-0.3-1.8-0.5-2.7-0.7c-1-0.2-2-0.4-3.1-0.7c-1.1-0.3-2.1-0.6-3-1.1c-1.1-0.6-2-1.4-2.6-2.4
			c-0.7-1.2-1-2.5-1-3.9c0-2.4,1-4.4,3-5.9c2-1.6,4.5-2.1,7-2.1c2.4,0,4.7,0.6,6.6,2.2c1.9,1.5,2.9,3.5,3.1,6l0.1,1.4h-6l-0.2-1.1
			c-0.1-0.8-0.5-1.4-1.1-1.9c-0.8-0.6-2-0.8-2.9-0.8c-1,0-2.1,0.2-2.9,0.7c-0.5,0.4-0.8,0.9-0.8,1.6c0,0.4,0.1,0.7,0.3,1
			c0.3,0.3,0.7,0.5,1.1,0.6c0.4,0.1,0.7,0.2,1.1,0.3c1.3,0.4,2.6,0.7,3.9,1.1c1.4,0.4,4.1,1.1,5.3,1.9c0.9,0.6,1.6,1.5,2,2.5
			c0.5,1.1,0.7,2.4,0.7,3.6C299,48.2,298.8,49.4,298.3,50.4L298.3,50.4z"/>
	</g>
</g>
<g>
	<g>
		<rect x="0.2" y="1.2" class="st3" width="75.2" height="75.2"/>
		<path class="st4" d="M28.5,10.6H15.9c-3.4,0-6.3,2.8-6.3,6.3v12.5c0,3.4,2.8,6.3,6.3,6.3h12.5c3.4,0,6.3-2.8,6.3-6.3V16.9
			C34.7,13.5,31.9,10.6,28.5,10.6z"/>
		<path class="st4" d="M59.8,10.6H47.3c-3.4,0-6.3,2.8-6.3,6.3v12.5c0,3.4,2.8,6.3,6.3,6.3h12.5c3.4,0,6.3-2.8,6.3-6.3V16.9
			C66.1,13.5,63.3,10.6,59.8,10.6z"/>
		<path class="st4" d="M28.5,42H15.9c-3.4,0-6.3,2.8-6.3,6.3v12.5c0,3.4,2.8,6.3,6.3,6.3h12.5c3.4,0,6.3-2.8,6.3-6.3V48.3
			C34.7,44.8,31.9,42,28.5,42z"/>
		<path class="st4" d="M59.8,42H47.3c-3.4,0-6.3,2.8-6.3,6.3v12.5c0,3.4,2.8,6.3,6.3,6.3h12.5c3.4,0,6.3-2.8,6.3-6.3V48.3
			C66.1,44.8,63.3,42,59.8,42z"/>
	</g>
</g>
<text transform="matrix(1 0 0 1 101.5654 54.5218)" class="st4 st5 st6">OffTheGrid</text>
</svg>
